<svg id="Capa_1" enable-background="new 0 0 512.962 512.962" height="512" viewBox="0 0 512.962 512.962" width="512" xmlns="http://www.w3.org/2000/svg"><g><g><path d="m324.052 7.5h-5.34l-48.844 14.492-99.346-14.492h-5.34c-31.3 0-56.67 25.37-56.67 56.67v383.6c0 31.3 25.37 56.67 56.67 56.67h145.32c38.78 0 70.23-31.44 70.23-70.23v-370.04c0-31.3-25.38-56.67-56.68-56.67z" fill="#f3fbff"/><path d="m362.667 470.4h-145.32c-31.3 0-56.67-25.37-56.67-56.67v-383.6c0-8.047 1.688-15.697 4.711-22.63h-.207c-31.3 0-56.67 25.37-56.67 56.67v383.6c0 31.3 25.37 56.67 56.67 56.67h145.32c25.752 0 48.26-13.873 60.484-34.547-2.729.322-5.501.507-8.318.507z" fill="#e3f6fc"/><g><g id="XMLID_225_"><g><path d="m318.712 7.5-10.27 24.05c-3.67 8.57-12.09 14.13-21.41 14.13h-84.82c-9.33 0-17.75-5.56-21.41-14.13l-10.28-24.05z" fill="#cac5cb"/></g></g><g id="XMLID_227_"><g><path d="m364.082 289.41c0-5.58 2.26-10.62 5.91-14.28 3.65-3.65 8.7-5.91 14.27-5.91 11.15 0 20.19 9.04 20.19 20.19v30.77 95.78c0 24.71-10.02 47.09-26.21 63.29-16.2 16.19-38.57 26.21-63.29 26.21-42.83 0-79.66-30.34-87.85-72.38l-4.52-23.23c-.29-1.47-.83-2.88-1.61-4.16l-51.02-84.76c-2.13-3.54-3.16-7.48-3.16-11.39 0-5.77 2.26-11.49 6.61-15.76 8.92-8.76 23.31-8.38 31.76.84l34.02 37.12c1.34 1.46 3.77.52 3.77-1.46v-161.12c0-5.57 2.26-10.62 5.91-14.27 3.66-3.65 8.71-5.91 14.28-5.91 11.15 0 20.19 9.03 20.19 20.18v94.77c0-11.15 9.03-20.18 20.18-20.18 5.58 0 10.62 2.26 14.28 5.91 3.65 3.65 5.91 8.69 5.91 14.27v11.29c0-11.14 9.04-20.18 20.19-20.18 5.58 0 10.62 2.26 14.28 5.91 3.65 3.66 5.91 8.7 5.91 14.27z" fill="#ffe6c6"/></g><g><path d="m337.444 488.225c-42.83 0-79.66-30.34-87.85-72.38l-4.52-23.23c-.29-1.47-.83-2.88-1.61-4.16l-51.02-84.76c-2.13-3.54-3.16-7.48-3.16-11.39 0-1.622.2-3.251.553-4.835-5.892-.256-11.878 1.833-16.436 6.309-4.35 4.27-6.61 9.99-6.61 15.76 0 3.91 1.03 7.85 3.16 11.39l51.02 84.76c.78 1.28 1.32 2.69 1.61 4.16l4.52 23.23c8.19 42.04 45.02 72.38 87.85 72.38 24.72 0 47.09-10.02 63.29-26.21.567-.567 1.125-1.144 1.676-1.727-12.636 6.826-27.099 10.703-42.473 10.703z" fill="#f8d3aa"/></g><path d="m269.052 154.89c1.243-1.24 2.662-2.322 4.191-3.207-2.973-1.721-6.419-2.703-10.101-2.703-5.57 0-10.62 2.26-14.28 5.91-3.65 3.65-5.91 8.7-5.91 14.27v158.06c11.151 0 20.19-9.039 20.19-20.19v-137.87c0-5.57 2.26-10.62 5.91-14.27z" fill="#f8d3aa"/></g></g></g><g><path d="m231.832 496.941h-66.651c-27.113 0-49.172-22.059-49.172-49.172v-383.598c0-27.113 22.059-49.171 49.172-49.171h.392l8.33 19.496c4.85 11.352 15.96 18.687 28.305 18.687h84.823c12.344 0 23.453-7.334 28.304-18.686l8.329-19.497h.392c27.113 0 49.172 22.058 49.172 49.171v166.25c0 4.142 3.357 7.5 7.5 7.5s7.5-3.358 7.5-7.5v-166.25c0-35.384-28.788-64.171-64.172-64.171h-158.875c-35.385 0-64.172 28.787-64.172 64.171v383.598c0 35.384 28.787 64.172 64.172 64.172h66.651c4.143 0 7.5-3.358 7.5-7.5s-3.357-7.5-7.5-7.5zm69.709-468.339c-2.487 5.82-8.183 9.58-14.511 9.58h-84.823c-6.329 0-12.024-3.76-14.511-9.58l-5.812-13.602h125.469z"/><path d="m404.453 384.252c-4.143 0-7.5 3.358-7.5 7.5v24.209c0 45.215-36.786 82.001-82.002 82.001-39.151 0-73.001-27.892-80.488-66.32l-4.523-23.219c-.454-2.336-1.308-4.556-2.538-6.603l-51.023-84.759c-3.496-5.809-2.56-13.183 2.277-17.932 2.849-2.797 6.586-4.289 10.605-4.174 3.99.105 7.673 1.784 10.37 4.727l34.024 37.129c2.714 2.961 6.889 3.935 10.633 2.478s6.164-4.994 6.164-9.011v-70.55c0-4.142-3.357-7.5-7.5-7.5s-7.5 3.358-7.5 7.5v56.842l-24.763-27.022c-5.47-5.969-12.94-9.374-21.034-9.587-8.065-.222-15.732 2.793-21.51 8.466-9.811 9.633-11.71 24.589-4.619 36.371l51.021 84.756c.324.538.548 1.122.668 1.736l4.524 23.221c8.855 45.458 48.898 78.452 95.211 78.452 53.487 0 97.002-43.515 97.002-97.001v-24.209c.001-4.143-3.356-7.501-7.499-7.501z"/><path d="m384.266 261.724c-5.254 0-10.171 1.471-14.36 4.023-3.878-10.614-14.076-18.21-26.016-18.21-5.66 0-10.927 1.71-15.316 4.637-4.43-9.402-13.995-15.927-25.059-15.927-4.571 0-8.884 1.12-12.688 3.091v-70.174c0-15.267-12.421-27.688-27.688-27.688s-27.688 12.42-27.688 27.688v58.603c0 4.142 3.357 7.5 7.5 7.5s7.5-3.358 7.5-7.5v-58.603c0-6.996 5.691-12.688 12.688-12.688s12.688 5.691 12.688 12.688v125.54c0 4.142 3.357 7.5 7.5 7.5s7.5-3.358 7.5-7.5v-30.769c0-6.996 5.691-12.688 12.688-12.688s12.688 5.691 12.688 12.688v42.059c0 4.142 3.357 7.5 7.5 7.5s7.5-3.358 7.5-7.5v-30.769c0-6.996 5.691-12.688 12.688-12.688s12.688 5.691 12.688 12.688v44.956c0 4.142 3.357 7.5 7.5 7.5s7.5-3.358 7.5-7.5v-30.769c0-6.996 5.692-12.688 12.688-12.688s12.688 5.691 12.688 12.688v70.377c0 4.142 3.357 7.5 7.5 7.5s7.5-3.358 7.5-7.5v-70.377c-.002-15.267-12.423-27.688-27.689-27.688z"/><path d="m343.89 171.889c4.143 0 7.5-3.358 7.5-7.5 0-21.503-7.906-42.205-22.263-58.29-2.758-3.089-7.499-3.36-10.59-.602-3.09 2.758-3.359 7.5-.602 10.59 11.9 13.333 18.454 30.487 18.454 48.302.001 4.142 3.358 7.5 7.501 7.5z"/><path d="m294.727 98.706c3.742 1.772 8.216.176 9.989-3.567 1.772-3.743.176-8.215-3.567-9.989-11.764-5.573-24.346-8.398-37.396-8.398-48.323 0-87.638 39.314-87.638 87.637 0 4.142 3.357 7.5 7.5 7.5s7.5-3.358 7.5-7.5c0-40.052 32.585-72.637 72.638-72.637 10.811-.001 21.233 2.339 30.974 6.954z"/><path d="m216.562 171.889c4.143 0 7.5-3.358 7.5-7.5 0-21.885 17.805-39.689 39.689-39.689s39.689 17.804 39.689 39.689c0 4.142 3.357 7.5 7.5 7.5s7.5-3.358 7.5-7.5c0-30.156-24.533-54.689-54.689-54.689s-54.689 24.533-54.689 54.689c0 4.142 3.358 7.5 7.5 7.5z"/></g></g></svg>