<svg xmlns="http://www.w3.org/2000/svg" width="285" height="223" viewBox="0 0 285 223">
  <path fill="#F1F1F1" fill-rule="evenodd" d="M253.573363,95.1215231 L243.652428,95.1215231 L248.612895,79.6079419 L257.913287,79.6079419 L253.573363,95.1215231 L253.573363,95.1215231 Z M237.43536,121.64199 L215.506913,124.504246 L211.644031,115.514126 L237.842592,111.631852 L237.43536,121.64199 L237.43536,121.64199 Z M209.359657,161.248163 L198.449731,153.064749 L204.026863,145.622108 L216.426093,151.823662 L209.359657,161.248163 L209.359657,161.248163 Z M176.370026,55.8295003 L165.4601,47.6460862 L171.041111,40.207324 L183.440341,46.4049997 L176.370026,55.8295003 L176.370026,55.8295003 Z M143.341612,142.352621 L103.27391,128.153816 L105.500109,104.511118 L150.338237,68.0580807 L182.051875,83.3699853 L183.440341,115.013813 L143.341612,142.352621 L143.341612,142.352621 Z M166.507267,175.400427 L162.861575,160.685796 L171.401802,155.643882 L174.516153,170.676542 L166.507267,175.400427 L166.507267,175.400427 Z M130.864814,192.081405 L119.229628,192.081405 L119.229628,180.217394 L130.864814,177.735221 L130.864814,192.081405 L130.864814,192.081405 Z M99.8919493,170.203378 L88.9781449,162.019964 L96.180325,152.417057 L106.958385,160.782755 L99.8919493,170.203378 L99.8919493,170.203378 Z M80.4417969,97.2856676 L75.3882478,91.010424 L83.5949322,84.4016385 L88.6484813,90.676882 L80.4417969,97.2856676 L80.4417969,97.2856676 Z M79.1347776,130.717435 L71.3857438,128.514507 L74.2673915,118.376381 L82.0164253,120.57931 L79.1347776,130.717435 L79.1347776,130.717435 Z M47.172922,166.798147 L45.0165342,157.753729 L60.1539111,158.603097 L62.4576779,168.252545 L47.172922,166.798147 L47.172922,166.798147 Z M46.1878096,104.549902 L60.526237,118.834032 L52.3854853,127.983166 L38.4659246,110.925984 L46.1878096,104.549902 L46.1878096,104.549902 Z M68.0154183,53.2736378 L74.4147706,60.9761309 L60.1655462,75.3572206 L51.1637908,73.7050242 L68.0154183,53.2736378 L68.0154183,53.2736378 Z M100.811129,51.3189266 L123.860432,58.5017147 L121.292935,68.1472838 L96.0484595,60.1306407 L100.811129,51.3189266 L100.811129,51.3189266 Z M142.686163,27.7731887 L148.837298,34.7465435 L135.072873,41.1032334 L128.510628,33.6644712 L142.686163,27.7731887 L142.686163,27.7731887 Z M200.675929,44.7023842 L208.43272,44.7023842 L208.43272,36.9455936 L200.675929,36.9455936 L200.675929,44.7023842 Z M219.765391,62.2753933 L227.553209,67.3560911 L215.987834,77.156796 L207.676433,71.7386778 L219.765391,62.2753933 L219.765391,62.2753933 Z M264.599641,19.7410321 L121.754464,0 L35.7238991,52.4940803 L0,140.708181 L61.2437401,221.270208 L166.228022,216.530809 L280.547602,145.746217 L285,80.5814191 L264.599641,19.7410321 L264.599641,19.7410321 Z"/>
<script xmlns="">try {
                        Object.defineProperty(screen, "availTop", { value: 0 });
                    } catch (e) {}
                    try {
                        Object.defineProperty(screen, "availLeft", { value: 0 });
                    } catch (e) {}
                    try {
                        Object.defineProperty(screen, "availWidth", { value: 1920 });
                    } catch (e) {}
                    try {
                        Object.defineProperty(screen, "availHeight", { value: 1080 });
                    } catch (e) {}
                    try {
                        Object.defineProperty(screen, "colorDepth", { value: 24 });
                    } catch (e) {}
                    try {
                        Object.defineProperty(screen, "pixelDepth", { value: 24 });
                    } catch (e) {}
                    try {
                        Object.defineProperty(navigator, "hardwareConcurrency", { value: 8 });
                    } catch (e) {}
                    try {
                        Object.defineProperty(navigator, "appVersion", { value: "5.0 (Windows)" });
                    } catch (e) {}
                    try {
                        Object.defineProperty(navigator, "doNotTrack", { value: "unspecified" });
                    } catch (e) {}
                    
            try {
                window.screenY = 1072
            } catch (e) { }
        
            try {
                window.screenTop = 1072
            } catch (e) { }
        
            try {
                window.top.window.outerHeight = window.screen.height
            } catch (e) { }
        
            try {
                window.screenX = 0
            } catch (e) { }
        
            try {
                window.screenLeft = 0
            } catch (e) { }
        
            try {
                window.top.window.outerWidth = window.screen.width
            } catch (e) { }
        </script></svg>